<svg width="9" height="9" viewBox="0 0 9 9" fill="none" xmlns="http://www.w3.org/2000/svg">
<path d="M5.15747 4.35486L8.48999 0.382495C8.54585 0.31648 8.49888 0.216187 8.41255 0.216187H7.39947C7.3398 0.216187 7.28267 0.242847 7.24331 0.28855L4.49478 3.56521L1.74624 0.28855C1.70816 0.242847 1.65103 0.216187 1.59009 0.216187H0.577006C0.490678 0.216187 0.443705 0.31648 0.499565 0.382495L3.83208 4.35486L0.499565 8.32722C0.487052 8.34194 0.479024 8.35993 0.476435 8.37908C0.473845 8.39822 0.476803 8.4177 0.484957 8.43521C0.49311 8.45272 0.506118 8.46752 0.522434 8.47786C0.53875 8.4882 0.557691 8.49364 0.577006 8.49353H1.59009C1.64976 8.49353 1.70689 8.46687 1.74624 8.42117L4.49478 5.14451L7.24331 8.42117C7.2814 8.46687 7.33853 8.49353 7.39947 8.49353H8.41255C8.49888 8.49353 8.54585 8.39324 8.48999 8.32722L5.15747 4.35486Z" fill="#222326"/>
</svg>
